<svg width="141" height="32" viewBox="0 0 32 32" fill="none" xmlns="http://www.w3.org/2000/svg">
<g clip-path="url(#clip0_207_1005)">
    <path
       d="M 16,32 C 24.8366,32 32,24.8366 32,16 32,7.16344 24.8366,0 16,0 7.16344,0 0,7.16344 0,16 0,24.8366 7.16344,32 16,32 Z"
       fill="#1a1a1a"
       id="path16" />
    <path
       d="m 20.4965,20.2564 c 0.7911,-0.7617 1.4814,-1.6216 2.0541,-2.5586 0.5428,-0.8666 0.948,-1.8121 1.2012,-2.8028 0.2215,-0.8949 0.2569,-1.8256 0.1041,-2.7347 C 23.6905,11.2486 23.2488,10.4099 22.5906,9.75786 21.96,9.08109 21.1368,8.61427 20.2322,8.42052 19.3354,8.23644 18.4092,8.24873 17.5175,8.45656 16.5288,8.69042 15.583,9.0782 14.7147,9.6057 c -1.8921,1.1279 -3.4926,2.6845 -4.6726,4.5445 -0.5641,0.8725 -0.99209,1.8257 -1.26931,2.8269 -0.25372,0.9039 -0.30566,1.8525 -0.15215,2.7788 0.16301,0.9115 0.60349,1.7505 1.26126,2.4024 0.631,0.677 1.4539,1.145 2.3584,1.3413 0.9277,0.1857 1.8851,0.1625 2.8028,-0.0681 1.0098,-0.2446 1.9765,-0.6416 2.8668,-1.1771 0.9378,-0.562 1.806,-1.2326 2.5866,-1.998 z"
       fill="#7600ff"
       id="path18" />
    <path
       opacity="0.7"
       d="M 22.2784,15.9118 C 22.2821,14.8129 22.1476,13.7179 21.878,12.6526 21.6349,11.6624 21.2377,10.7166 20.7008,9.84978 20.2185,9.06625 19.5775,8.39245 18.8189,7.8718 18.05,7.3567 17.1416,7.08977 16.2163,7.10703 15.2909,7.08926 14.3824,7.35622 13.6137,7.8718 c -0.7561,0.51558 -1.3913,1.18906 -1.8619,1.97397 -0.5196,0.86953 -0.8992,1.81533 -1.1251,2.80283 -0.5071,2.1432 -0.5071,4.3752 0,6.5185 0.2344,1.0112 0.6219,1.9807 1.1492,2.8749 0.4716,0.8128 1.1169,1.5115 1.8898,2.046 0.7688,0.5149 1.6776,0.7805 2.6026,0.7608 0.925,0.0187 1.8334,-0.2469 2.6026,-0.7608 0.7727,-0.5336 1.4169,-1.2325 1.8859,-2.046 0.5273,-0.8942 0.9148,-1.8637 1.1492,-2.8749 0.2522,-1.0666 0.3772,-2.1593 0.3724,-3.2553 z"
       fill="#ffffff"
       id="path20" />
    <path
       d="M 20.4646,11.6757 C 19.6867,10.9027 18.815,10.2301 17.87,9.67372 17.001,9.14663 16.0555,8.75762 15.0672,8.52056 14.1713,8.30981 13.2413,8.28799 12.3364,8.4565 11.4295,8.6377 10.5997,9.09174 9.95806,9.7578 c -0.67181,0.6469 -1.12646,1.4863 -1.3013,2.4024 -0.17118,0.9 -0.14385,1.8264 0.08008,2.7147 0.25068,0.9841 0.65614,1.922 1.2012,2.7788 1.15076,1.8597 2.72086,3.4243 4.58456,4.5686 0.8813,0.5504 1.8413,0.9636 2.8469,1.2252 0.9067,0.2421 1.856,0.279 2.7787,0.1081 0.9027,-0.1945 1.7302,-0.645 2.3835,-1.2976 0.6533,-0.6526 1.1047,-1.4796 1.3002,-2.3821 0.1676,-0.9232 0.1294,-1.872 -0.1121,-2.7788 -0.2612,-1.0051 -0.6729,-1.9649 -1.2212,-2.8468 -0.5743,-0.9353 -1.257,-1.7995 -2.034,-2.5746 z"
       fill="#ffffff"
       id="path22" /></g>
<defs>
<clipPath id="clip0_207_1005">
<rect width="140.837" height="32" fill="white"/>
</clipPath>
</defs>
</svg>
